<svg  xmlns="http://www.w3.org/2000/svg" width="50" height="50">
<g transform="scale(8) translate(-2.4,-0.2) rotate(154, 5, 3)">
<path d="M1.2, 3.0 C0.5, 5, 4.0, 4.6, 4.0, 4.6, 4.0, 4.6, 4.8, 5.4, 6.0, 5.0, 6.0, 5.0, 5.0, 5.0, 5.4, 4.2, 5.4, 4.2, 7.5, 3.3, 7.8, 2.0, 7.8, 2.0, 9.0, 1.6, 8.8, 1.0, 8.0, 1.6, 7.2, 0.4, 7.2, 0.4, 6.8, 0.6, 7.4, 1.8, 7.4, 1.8, 7.4, 1.8, 5.7, 3.2, 3.6, 3.2, 4.8, 1.3, 3.0, 2.2, 2.6, 3.1, 2.6, 3.1, 1.8, 3.0, 1.4, 2.5, 1.0, 2.4, 1.0, 2.6, 1.2, 3.0" fill="teal" />
</g>
</svg>